<?xml version="1.0" standalone="no"?>
<!DOCTYPE svg PUBLIC "-//W3C//DTD SVG 20010904//EN"
 "http://www.w3.org/TR/2001/REC-SVG-20010904/DTD/svg10.dtd">
<svg version="1.0" xmlns="http://www.w3.org/2000/svg"
 width="446.000000pt" height="558.000000pt" viewBox="0 0 446.000000 558.000000"
 preserveAspectRatio="xMidYMid meet">

<g transform="translate(0.000000,558.000000) scale(0.100000,-0.100000)"
fill="#000000" stroke="none">
<path d="M164 5532 c-48 -27 -68 -44 -99 -86 l-30 -39 0 -1208 0 -1207 30 -43
c17 -24 50 -57 74 -74 l43 -30 923 0 923 0 43 30 c24 17 57 50 74 74 l30 43 0
1208 0 1208 -41 48 c-22 27 -58 59 -80 71 l-39 23 -910 -1 c-839 0 -912 -1
-941 -17z m1864 -102 c23 -16 45 -42 49 -57 5 -16 8 -550 8 -1188 0 -1105 -1
-1161 -18 -1187 -10 -15 -30 -35 -45 -45 -26 -17 -73 -18 -917 -18 -844 0
-891 1 -917 18 -15 10 -35 30 -45 45 -17 26 -18 82 -18 1203 0 1163 0 1177 20
1199 11 13 34 31 50 41 29 18 71 19 911 19 l881 0 41 -30z"/>
<path d="M653 4990 c-47 -28 -60 -63 -68 -180 -7 -104 -30 -213 -58 -280 -9
-19 -26 -57 -38 -85 -59 -130 -89 -248 -89 -343 0 -58 22 -171 45 -237 64
-180 228 -348 406 -416 268 -102 546 -41 753 165 68 67 90 98 129 177 26 53
47 104 47 112 0 9 7 44 16 79 30 116 1 316 -66 448 -5 11 -15 29 -20 40 -38
75 -69 204 -80 331 -9 117 -24 156 -69 188 -53 38 -107 25 -201 -49 -164 -129
-185 -140 -255 -140 -70 0 -91 11 -255 140 -93 73 -140 85 -197 50z m249 -207
l97 -73 104 0 104 0 74 54 c41 30 106 78 146 106 l72 51 15 -23 c8 -13 17 -63
21 -113 8 -102 51 -280 83 -341 14 -28 38 -84 55 -129 118 -319 -45 -669 -363
-783 -245 -88 -528 -7 -682 195 -51 66 -97 159 -110 218 -28 136 -30 164 -13
253 17 87 23 104 75 217 66 146 87 224 96 355 4 63 12 114 21 128 l14 22 47
-32 c26 -17 91 -65 144 -105z"/>
<path d="M821 4476 c-29 -31 -24 -40 78 -140 l82 -79 24 23 c14 13 25 31 25
40 0 19 -156 180 -175 180 -6 0 -22 -11 -34 -24z"/>
<path d="M1262 4327 c-45 -45 -82 -89 -82 -98 0 -9 11 -26 25 -39 l26 -24 80
80 c105 103 109 111 75 141 -15 13 -30 23 -34 23 -4 0 -44 -37 -90 -83z"/>
<path d="M1080 3907 c-96 -73 -175 -137 -177 -143 -2 -6 8 -25 22 -42 l26 -31
180 135 c98 75 179 140 179 145 0 18 -20 48 -38 58 -14 8 -51 -16 -192 -122z"/>
<path d="M2409 5530 c-20 -11 -55 -40 -77 -65 -33 -37 -42 -57 -47 -98 -3 -29
-5 -575 -3 -1214 l3 -1161 30 -43 c17 -24 50 -57 74 -74 l43 -30 923 0 923 0
43 30 c24 17 57 50 74 74 l30 43 0 1208 0 1208 -41 48 c-22 27 -58 59 -80 71
l-39 23 -910 -1 c-878 0 -911 -1 -946 -19z m1869 -100 c23 -16 45 -42 49 -57
5 -16 8 -550 8 -1188 0 -1105 -1 -1161 -18 -1187 -10 -15 -30 -35 -45 -45 -26
-17 -73 -18 -917 -18 -844 0 -891 1 -917 18 -15 10 -35 30 -45 45 -17 26 -18
82 -18 1203 0 1163 0 1177 20 1199 11 13 34 31 50 41 29 18 71 19 911 19 l881
0 41 -30z"/>
<path d="M2927 4982 c-15 -4 -43 -22 -62 -40 -42 -41 -51 -91 -36 -188 10 -67
10 -70 -17 -107 -58 -81 -132 -223 -132 -252 0 -8 -7 -40 -15 -72 -32 -123 -7
-302 63 -443 60 -121 199 -261 312 -311 214 -96 415 -98 620 -5 147 67 285
216 347 376 50 127 65 279 38 383 -8 32 -15 64 -15 72 0 29 -74 171 -132 252
-27 37 -27 40 -17 107 16 101 6 145 -41 191 -39 38 -43 39 -108 39 -66 0 -71
-1 -128 -46 l-59 -46 -192 0 -193 0 -54 44 c-44 36 -63 45 -102 49 -27 2 -62
1 -77 -3z m146 -142 c68 -58 90 -66 143 -51 22 6 84 11 139 11 55 0 117 -5
139 -11 53 -15 75 -7 143 51 46 40 65 50 94 50 20 0 42 -7 49 -15 15 -18 15
-111 0 -149 -18 -49 -11 -73 43 -142 58 -75 105 -166 119 -229 29 -137 29
-173 2 -305 -12 -58 -69 -172 -117 -231 -78 -97 -164 -157 -291 -202 -51 -18
-82 -21 -186 -21 -108 1 -134 5 -193 27 -92 35 -146 68 -217 133 -231 215
-256 588 -54 824 53 62 60 87 44 144 -16 58 -16 132 0 151 7 8 28 15 49 15 29
0 48 -10 94 -50z"/>
<path d="M3074 4406 c-14 -55 -6 -61 88 -64 86 -3 88 -2 94 22 3 13 3 34 -1
45 -6 19 -14 21 -90 21 -81 0 -85 -1 -91 -24z"/>
<path d="M3454 4406 c-3 -14 -3 -34 1 -45 6 -19 14 -21 90 -21 81 0 85 1 91
24 3 14 3 34 -1 45 -6 19 -14 21 -90 21 -81 0 -85 -1 -91 -24z"/>
<path d="M3170 4009 c-29 -30 -30 -32 -14 -50 48 -53 166 -82 259 -63 66 13
113 34 139 63 16 18 15 20 -14 50 l-31 31 -41 -27 c-35 -24 -51 -27 -113 -27
-62 0 -78 3 -113 27 l-41 27 -31 -31z"/>
<path d="M181 2729 c-47 -14 -127 -97 -140 -147 -8 -29 -11 -394 -9 -1225 l3
-1185 41 -48 c22 -27 58 -59 80 -71 l39 -23 910 0 910 0 39 23 c22 12 58 44
80 71 l41 48 0 1208 0 1208 -30 43 c-17 24 -50 57 -74 74 l-43 30 -906 2
c-565 1 -920 -2 -941 -8z m1841 -102 c15 -10 35 -30 45 -45 17 -26 18 -82 18
-1187 0 -638 -3 -1172 -8 -1188 -4 -15 -26 -41 -49 -57 l-41 -30 -883 0 -882
0 -44 33 c-33 26 -44 42 -50 72 -9 50 -10 2236 -1 2300 7 55 55 111 100 118
15 2 420 4 898 3 824 -1 871 -2 897 -19z"/>
<path d="M698 2253 c-17 -19 -15 -39 17 -253 29 -198 30 -189 -12 -224 -21
-17 -70 -63 -109 -102 -83 -83 -144 -196 -174 -323 -81 -340 114 -694 450
-818 47 -18 185 -43 235 -43 50 0 188 25 235 43 139 51 294 173 357 282 29 49
83 167 83 180 0 8 7 40 15 72 8 31 15 89 15 128 0 39 -7 97 -15 128 -8 32 -15
64 -15 72 0 23 -60 145 -101 205 -60 89 -156 171 -259 224 -76 39 -132 56
-220 66 l-74 10 -186 185 c-189 189 -210 204 -242 168z m285 -341 c81 -82 147
-154 147 -160 0 -24 -62 -81 -116 -106 -42 -20 -69 -26 -103 -24 -44 3 -46 5
-53 38 -8 44 -26 168 -38 280 -6 47 -13 93 -16 102 -15 49 43 7 179 -130z
m377 -165 c72 -32 173 -111 222 -174 114 -147 156 -337 114 -516 -20 -81 -30
-106 -74 -177 -74 -118 -170 -198 -302 -251 -80 -32 -91 -33 -210 -33 -104 0
-136 3 -189 22 -155 55 -262 141 -339 271 -44 76 -64 138 -81 256 -10 71 9
219 36 270 5 11 21 42 34 68 42 85 160 211 179 191 4 -5 13 -33 19 -63 6 -30
16 -61 23 -68 7 -9 39 -13 103 -13 99 0 162 20 232 73 47 34 109 117 117 153
7 31 8 31 39 22 18 -6 52 -20 77 -31z"/>
<path d="M832 1328 c-15 -15 -15 -61 0 -76 7 -7 41 -12 83 -12 78 0 95 9 95
50 0 41 -17 50 -95 50 -42 0 -76 -5 -83 -12z"/>
<path d="M1212 1328 c-15 -15 -15 -61 0 -76 7 -7 41 -12 83 -12 78 0 95 9 95
50 0 41 -17 50 -95 50 -42 0 -76 -5 -83 -12z"/>
<path d="M1017 1044 c-14 -14 -7 -72 9 -78 23 -9 147 -7 162 3 8 5 12 22 10
42 l-3 34 -85 3 c-47 1 -89 0 -93 -4z"/>
<path d="M2431 2729 c-46 -14 -127 -97 -140 -145 -12 -42 -16 -2317 -5 -2387
8 -45 70 -120 125 -147 37 -19 64 -20 946 -20 l908 0 39 23 c22 12 58 44 80
71 l41 48 0 1208 0 1208 -30 43 c-17 24 -50 57 -74 74 l-43 30 -906 2 c-565 1
-920 -2 -941 -8z m1841 -102 c15 -10 35 -30 45 -45 17 -26 18 -82 18 -1187 0
-638 -3 -1172 -8 -1188 -4 -15 -26 -41 -49 -57 l-41 -30 -883 0 -882 0 -44 33
c-33 26 -44 42 -50 72 -9 50 -10 2236 -1 2300 7 55 55 111 100 118 15 2 420 4
898 3 824 -1 871 -2 897 -19z"/>
<path d="M2762 2256 c-22 -24 -52 -155 -52 -224 1 -73 33 -199 74 -286 l37
-78 -24 -32 c-29 -38 -46 -86 -57 -164 -4 -32 -25 -94 -45 -138 -44 -92 -54
-156 -32 -205 8 -19 27 -61 42 -93 15 -32 30 -84 35 -115 18 -132 58 -188 168
-243 24 -13 79 -55 121 -94 90 -82 138 -102 211 -85 58 13 161 14 231 1 79
-15 124 4 213 87 40 38 93 78 118 90 110 55 150 112 168 244 5 31 19 80 32
110 73 159 73 176 13 304 -22 46 -41 105 -45 140 -10 75 -26 121 -57 161 l-24
32 37 78 c41 87 73 213 74 286 0 63 -29 199 -48 221 -31 36 -58 22 -101 -52
-57 -96 -126 -168 -229 -239 -85 -58 -93 -61 -178 -71 -64 -8 -114 -8 -178 0
-85 10 -93 14 -178 71 -103 70 -172 143 -228 238 -44 75 -68 89 -98 56z m128
-257 c25 -26 69 -63 99 -83 88 -60 89 -63 23 -124 -56 -53 -96 -72 -112 -56
-40 42 -90 203 -90 293 0 50 2 50 80 -30z m996 -76 c-14 -67 -53 -163 -76
-187 -16 -16 -56 3 -112 56 -55 51 -56 54 -40 74 9 11 37 33 62 49 24 15 74
57 110 93 l65 65 3 -37 c2 -20 -4 -71 -12 -113z m-259 -193 c38 -36 93 -78
123 -94 95 -49 113 -75 129 -189 5 -36 25 -98 45 -141 36 -77 45 -131 26 -164
-31 -53 -70 -158 -70 -188 0 -40 -26 -123 -47 -146 -8 -9 -40 -29 -71 -45 -31
-15 -90 -59 -131 -98 -70 -66 -76 -70 -120 -69 -59 1 -253 1 -312 0 -44 -1
-50 3 -120 69 -41 39 -100 83 -131 98 -31 16 -63 36 -71 45 -21 23 -47 106
-47 146 0 30 -39 135 -70 188 -19 33 -10 87 26 164 20 43 40 105 45 141 16
114 34 140 129 189 30 16 86 58 124 95 l70 66 202 -1 201 -1 70 -65z"/>
<path d="M3082 1328 c-7 -7 -12 -24 -12 -38 0 -41 17 -50 95 -50 78 0 95 9 95
50 0 41 -17 50 -95 50 -42 0 -76 -5 -83 -12z"/>
<path d="M3462 1328 c-7 -7 -12 -24 -12 -38 0 -41 17 -50 95 -50 78 0 95 9 95
50 0 41 -17 50 -95 50 -42 0 -76 -5 -83 -12z"/>
<path d="M3267 1044 c-14 -14 -7 -72 9 -78 23 -9 147 -7 162 3 8 5 12 22 10
42 l-3 34 -85 3 c-47 1 -89 0 -93 -4z"/>
</g>
</svg>
